<svg width="32" height="32" viewBox="0 0 32 32" fill="none" xmlns="http://www.w3.org/2000/svg">
<path d="M5 4C4.73478 4 4.48043 4.10536 4.29289 4.29289C4.10536 4.48043 4 4.73478 4 5C4 5.26522 4.10536 5.51957 4.29289 5.70711C4.48043 5.89464 4.73478 6 5 6H5.492C5.70914 6.00038 5.92026 6.07142 6.09346 6.2024C6.26665 6.33338 6.3925 6.51717 6.452 6.726L9.624 17.826C9.80341 18.4524 10.1819 19.0034 10.7022 19.3956C11.2225 19.7878 11.8564 20 12.508 20H21.646C22.2457 20.0001 22.8317 19.8205 23.3283 19.4843C23.8249 19.1481 24.2093 18.6708 24.432 18.114L27.38 10.742C27.5012 10.4387 27.5462 10.1102 27.5112 9.78546C27.4762 9.46068 27.3621 9.14943 27.179 8.87892C26.9959 8.6084 26.7493 8.38685 26.4608 8.23364C26.1723 8.08042 25.8507 8.00021 25.524 8H8.896L8.374 6.176C8.19505 5.54955 7.81703 4.99837 7.29708 4.60579C6.77713 4.21321 6.14351 4.00057 5.492 4H5ZM11.548 17.274L9.468 10H25.522L22.574 17.372C22.4997 17.5574 22.3716 17.7163 22.2062 17.8282C22.0408 17.9401 21.8457 18 21.646 18H12.508C12.2909 17.9996 12.0797 17.9286 11.9065 17.7976C11.7334 17.6666 11.6075 17.4828 11.548 17.274Z" fill="white"/>
<path d="M13 28C13.394 28 13.7841 27.9224 14.1481 27.7716C14.512 27.6209 14.8427 27.3999 15.1213 27.1213C15.3999 26.8427 15.6209 26.512 15.7716 26.1481C15.9224 25.7841 16 25.394 16 25C16 24.606 15.9224 24.2159 15.7716 23.8519C15.6209 23.488 15.3999 23.1573 15.1213 22.8787C14.8427 22.6001 14.512 22.3791 14.1481 22.2284C13.7841 22.0776 13.394 22 13 22C12.2044 22 11.4413 22.3161 10.8787 22.8787C10.3161 23.4413 10 24.2044 10 25C10 25.7956 10.3161 26.5587 10.8787 27.1213C11.4413 27.6839 12.2044 28 13 28ZM13 26C12.7348 26 12.4804 25.8946 12.2929 25.7071C12.1054 25.5196 12 25.2652 12 25C12 24.7348 12.1054 24.4804 12.2929 24.2929C12.4804 24.1054 12.7348 24 13 24C13.2652 24 13.5196 24.1054 13.7071 24.2929C13.8946 24.4804 14 24.7348 14 25C14 25.2652 13.8946 25.5196 13.7071 25.7071C13.5196 25.8946 13.2652 26 13 26Z" fill="white"/>
<path d="M21 28C21.394 28 21.7841 27.9224 22.1481 27.7716C22.512 27.6209 22.8427 27.3999 23.1213 27.1213C23.3999 26.8427 23.6209 26.512 23.7716 26.1481C23.9224 25.7841 24 25.394 24 25C24 24.606 23.9224 24.2159 23.7716 23.8519C23.6209 23.488 23.3999 23.1573 23.1213 22.8787C22.8427 22.6001 22.512 22.3791 22.1481 22.2284C21.7841 22.0776 21.394 22 21 22C20.2044 22 19.4413 22.3161 18.8787 22.8787C18.3161 23.4413 18 24.2044 18 25C18 25.7956 18.3161 26.5587 18.8787 27.1213C19.4413 27.6839 20.2044 28 21 28ZM21 26C20.7348 26 20.4804 25.8946 20.2929 25.7071C20.1054 25.5196 20 25.2652 20 25C20 24.7348 20.1054 24.4804 20.2929 24.2929C20.4804 24.1054 20.7348 24 21 24C21.2652 24 21.5196 24.1054 21.7071 24.2929C21.8946 24.4804 22 24.7348 22 25C22 25.2652 21.8946 25.5196 21.7071 25.7071C21.5196 25.8946 21.2652 26 21 26Z" fill="white"/>
</svg>
