<svg width="167" height="38" viewBox="0 0 167 38" fill="none" xmlns="http://www.w3.org/2000/svg">
<path d="M9.20312 30.3125C6.91146 30.3125 5.04688 29.5625 3.60938 28.0625C2.17188 26.5521 1.45312 24.5365 1.45312 22.0156V21.4844C1.45312 19.8073 1.77083 18.3125 2.40625 17C3.05208 15.6771 3.94792 14.6458 5.09375 13.9062C6.25 13.1562 7.5 12.7812 8.84375 12.7812C11.0417 12.7812 12.75 13.5052 13.9688 14.9531C15.1875 16.401 15.7969 18.474 15.7969 21.1719V22.375H4.34375C4.38542 24.0417 4.86979 25.3906 5.79688 26.4219C6.73438 27.4427 7.92188 27.9531 9.35938 27.9531C10.3802 27.9531 11.2448 27.7448 11.9531 27.3281C12.6615 26.9115 13.2812 26.3594 13.8125 25.6719L15.5781 27.0469C14.1615 29.224 12.0365 30.3125 9.20312 30.3125ZM8.84375 15.1562C7.67708 15.1562 6.69792 15.5833 5.90625 16.4375C5.11458 17.2812 4.625 18.4688 4.4375 20H12.9062V19.7812C12.8229 18.3125 12.4271 17.1771 11.7188 16.375C11.0104 15.5625 10.0521 15.1562 8.84375 15.1562ZM26.3125 19.8594C23.7396 19.1198 21.8646 18.2135 20.6875 17.1406C19.5208 16.0573 18.9375 14.724 18.9375 13.1406C18.9375 11.349 19.651 9.86979 21.0781 8.70312C22.5156 7.52604 24.3802 6.9375 26.6719 6.9375C28.2344 6.9375 29.625 7.23958 30.8438 7.84375C32.0729 8.44792 33.0208 9.28125 33.6875 10.3438C34.3646 11.4062 34.7031 12.5677 34.7031 13.8281H31.6875C31.6875 12.4531 31.25 11.375 30.375 10.5938C29.5 9.80208 28.2656 9.40625 26.6719 9.40625C25.1927 9.40625 24.0365 9.73438 23.2031 10.3906C22.3802 11.0365 21.9688 11.9375 21.9688 13.0938C21.9688 14.0208 22.3594 14.8073 23.1406 15.4531C23.9323 16.0885 25.2708 16.6719 27.1562 17.2031C29.0521 17.7344 30.5312 18.3229 31.5938 18.9688C32.6667 19.6042 33.4583 20.349 33.9688 21.2031C34.4896 22.0573 34.75 23.0625 34.75 24.2188C34.75 26.0625 34.0312 27.5417 32.5938 28.6562C31.1562 29.7604 29.2344 30.3125 26.8281 30.3125C25.2656 30.3125 23.8073 30.0156 22.4531 29.4219C21.099 28.8177 20.0521 27.9948 19.3125 26.9531C18.5833 25.9115 18.2188 24.7292 18.2188 23.4062H21.2344C21.2344 24.7812 21.7396 25.8698 22.75 26.6719C23.7708 27.4635 25.1302 27.8594 26.8281 27.8594C28.4115 27.8594 29.625 27.5365 30.4688 26.8906C31.3125 26.2448 31.7344 25.3646 31.7344 24.25C31.7344 23.1354 31.3438 22.276 30.5625 21.6719C29.7812 21.0573 28.3646 20.4531 26.3125 19.8594ZM41.0469 15.1406C42.3281 13.5677 43.9948 12.7812 46.0469 12.7812C49.6198 12.7812 51.4219 14.7969 51.4531 18.8281V30H48.5625V18.8125C48.5521 17.5938 48.2708 16.6927 47.7188 16.1094C47.1771 15.526 46.3281 15.2344 45.1719 15.2344C44.2344 15.2344 43.4115 15.4844 42.7031 15.9844C41.9948 16.4844 41.4427 17.1406 41.0469 17.9531V30H38.1562V6H41.0469V15.1406ZM55.0156 21.3906C55.0156 19.7344 55.3385 18.2448 55.9844 16.9219C56.6406 15.599 57.5469 14.5781 58.7031 13.8594C59.8698 13.1406 61.1979 12.7812 62.6875 12.7812C64.9896 12.7812 66.849 13.5781 68.2656 15.1719C69.6927 16.7656 70.4062 18.8854 70.4062 21.5312V21.7344C70.4062 23.3802 70.0885 24.8594 69.4531 26.1719C68.8281 27.474 67.9271 28.4896 66.75 29.2188C65.5833 29.9479 64.2396 30.3125 62.7188 30.3125C60.4271 30.3125 58.5677 29.5156 57.1406 27.9219C55.724 26.3281 55.0156 24.2188 55.0156 21.5938V21.3906ZM57.9219 21.7344C57.9219 23.6094 58.3542 25.1146 59.2188 26.25C60.0938 27.3854 61.2604 27.9531 62.7188 27.9531C64.1875 27.9531 65.3542 27.3802 66.2188 26.2344C67.0833 25.0781 67.5156 23.4635 67.5156 21.3906C67.5156 19.5365 67.0729 18.0365 66.1875 16.8906C65.3125 15.7344 64.1458 15.1562 62.6875 15.1562C61.2604 15.1562 60.1094 15.724 59.2344 16.8594C58.3594 17.9948 57.9219 19.6198 57.9219 21.7344ZM88.3125 21.7344C88.3125 24.3073 87.724 26.3802 86.5469 27.9531C85.3698 29.526 83.776 30.3125 81.7656 30.3125C79.7135 30.3125 78.099 29.6615 76.9219 28.3594V36.5H74.0312V13.0938H76.6719L76.8125 14.9688C77.9896 13.5104 79.625 12.7812 81.7188 12.7812C83.75 12.7812 85.3542 13.5469 86.5312 15.0781C87.7188 16.6094 88.3125 18.7396 88.3125 21.4688V21.7344ZM85.4219 21.4062C85.4219 19.5 85.0156 17.9948 84.2031 16.8906C83.3906 15.7865 82.276 15.2344 80.8594 15.2344C79.1094 15.2344 77.7969 16.0104 76.9219 17.5625V25.6406C77.7865 27.1823 79.1094 27.9531 80.8906 27.9531C82.276 27.9531 83.375 27.4062 84.1875 26.3125C85.0104 25.2083 85.4219 23.5729 85.4219 21.4062Z" fill="white"/>
</svg>
